<svg width="13" height="16" viewBox="0 0 13 16" fill="none" xmlns="http://www.w3.org/2000/svg">
<path d="M11.3333 6.33333H10.8333V4.5C10.8333 3.30653 10.3592 2.16193 9.51531 1.31802C8.6714 0.474106 7.52681 0 6.33333 0C5.13986 0 3.99527 0.474106 3.15135 1.31802C2.30744 2.16193 1.83333 3.30653 1.83333 4.5V6.33333H1.33333C0.979711 6.33333 0.640573 6.47381 0.390524 6.72386C0.140476 6.97391 0 7.31305 0 7.66667V14.6667C0 15.0203 0.140476 15.3594 0.390524 15.6095C0.640573 15.8595 0.979711 16 1.33333 16H11.3333C11.687 16 12.0261 15.8595 12.2761 15.6095C12.5262 15.3594 12.6667 15.0203 12.6667 14.6667V7.66667C12.6667 7.31305 12.5262 6.97391 12.2761 6.72386C12.0261 6.47381 11.687 6.33333 11.3333 6.33333ZM6.33333 12.3333C6.06962 12.3333 5.81184 12.2551 5.59257 12.1086C5.37331 11.9621 5.20241 11.7539 5.10149 11.5102C5.00058 11.2666 4.97417 10.9985 5.02562 10.7399C5.07707 10.4812 5.20405 10.2437 5.39052 10.0572C5.57699 9.87072 5.81457 9.74373 6.07321 9.69229C6.33185 9.64084 6.59994 9.66724 6.84358 9.76816C7.08721 9.86908 7.29545 10.04 7.44196 10.2592C7.58847 10.4785 7.66667 10.7363 7.66667 11C7.66667 11.3536 7.52619 11.6928 7.27614 11.9428C7.02609 12.1929 6.68696 12.3333 6.33333 12.3333ZM9.16667 6C9.16667 6.08841 9.13155 6.17319 9.06904 6.2357C9.00652 6.29821 8.92174 6.33333 8.83333 6.33333H3.83333C3.74493 6.33333 3.66014 6.29821 3.59763 6.2357C3.53512 6.17319 3.5 6.08841 3.5 6V4.5C3.5 3.74855 3.79851 3.02788 4.32986 2.49653C4.86122 1.96518 5.58189 1.66667 6.33333 1.66667C7.08478 1.66667 7.80545 1.96518 8.3368 2.49653C8.86816 3.02788 9.16667 3.74855 9.16667 4.5V6Z" fill="#828E99"/>
</svg>
