<svg width="185" height="48" viewBox="0 0 185 48" fill="none" xmlns="http://www.w3.org/2000/svg">
<path d="M23.9991 0.000194703C20.8526 -0.0055921 17.7358 0.610655 14.8267 1.81374C11.9176 3.01682 9.27317 4.78316 7.04454 7.01187C4.81591 9.24059 3.04671 11.888 1.83799 14.8029C0.629272 17.7178 0.00472023 20.8431 9.65244e-06 24.0002C-0.004605 29.1312 1.64553 34.126 4.70387 38.2383C4.81251 38.4171 4.94694 38.5788 5.10279 38.718L2.39354 45.6003L9.16894 42.8802C10.182 43.6729 11.2483 44.3945 12.3603 45.04C16.0165 47.0445 20.1283 48.0634 24.2941 47.9969C28.46 47.9305 32.5375 46.7811 36.1283 44.661C39.7191 42.5409 42.7005 39.5225 44.7813 35.9008C46.8621 32.279 47.9711 28.1777 48 23.9973C48.0016 20.8384 47.3813 17.7103 46.1746 14.7926C44.968 11.8748 43.1989 9.22503 40.9687 6.99526C38.7386 4.76549 36.0915 2.9997 33.1794 1.79928C30.2672 0.598866 27.1474 -0.012533 23.9991 0.000194703ZM23.9991 46.3202C20.232 46.3219 16.5269 45.3574 13.2357 43.5184C12.1753 42.9733 11.1846 42.3013 10.2854 41.517L9.48751 40.8772L5.42193 42.56L7.01761 38.3201L6.45969 37.6001C6.37353 37.4517 6.26599 37.3168 6.14056 37.1999C3.22528 33.4235 1.65309 28.7769 1.67434 24.0002C1.65855 19.5665 2.95444 15.2278 5.3979 11.5337C7.84136 7.83946 11.3225 4.95593 15.4004 3.24824C19.4783 1.54054 23.9696 1.08551 28.3054 1.94076C32.6412 2.79601 36.6266 4.92307 39.7567 8.05257C42.8869 11.1821 45.0211 15.1732 45.889 19.5206C46.7569 23.868 46.3194 28.376 44.6321 32.4737C42.9448 36.5715 40.0834 40.0746 36.4104 42.5395C32.7374 45.0044 28.418 46.3202 23.9991 46.3202Z" fill="white"/>
<path d="M24.0005 36.7188L20.4102 33.1987L13.7949 37.6789L14.672 39.0386L20.2529 35.2784L24.0005 39.0386L27.7481 35.2784L33.329 39.0386L34.206 37.6789L27.5862 33.1987L24.0005 36.7188Z" fill="white"/>
<path d="M23.9997 8.96021L12.6777 14.2403V16.2416H16.1062V23.0405H17.3822C17.383 23.7147 17.4633 24.3865 17.6215 25.0418C17.7013 25.282 17.7013 25.5215 17.7811 25.7617C17.7811 25.8418 17.8609 25.9218 17.8609 26.0019C17.8555 26.0453 17.8599 26.0894 17.8737 26.131C17.8875 26.1726 17.9104 26.2105 17.9407 26.242C18.2797 27.6212 18.8748 28.9238 19.6948 30.0817C20.1643 30.6982 20.6994 31.2615 21.2905 31.7617H26.7922C27.4206 31.3028 27.9612 30.7336 28.3878 30.0817C29.2217 28.9316 29.8172 27.6254 30.1391 26.2403C30.1391 26.1602 30.1391 26.0802 30.2189 26.0802C30.2189 26.0001 30.2987 25.9201 30.2987 25.84C30.3785 25.5999 30.3785 25.3603 30.4583 25.1201C30.538 24.4803 30.6178 23.8398 30.6976 23.1188H31.973V16.32H33.4878V19.6799H32.8518V23.0399H35.0043V19.6799H34.3648V16.32H35.4812V14.3186L23.9997 8.96021ZM28.7036 24.96C28.4225 26.8507 27.5253 28.5948 26.1522 29.9199H21.8467C20.4735 28.5948 19.5763 26.8507 19.2953 24.96C19.1324 24.3056 19.052 23.6332 19.0559 22.9587H28.9429C28.9469 23.6332 28.8665 24.3056 28.7036 24.96ZM30.2183 21.3576H17.7805V16.2399H30.2981V21.3599L30.2183 21.3576ZM23.9997 14.5599H15.7073L23.9991 10.7197L32.291 14.5599H23.9997Z" fill="white"/>
<path d="M73.1548 20.6378C73.098 20.0649 72.8542 19.6198 72.4233 19.3026C71.9924 18.9853 71.4077 18.8267 70.669 18.8267C70.1671 18.8267 69.7434 18.8977 69.3977 19.0398C69.0521 19.1771 68.7869 19.3688 68.6023 19.6151C68.4223 19.8613 68.3324 20.1406 68.3324 20.4531C68.3229 20.7135 68.3774 20.9408 68.4957 21.1349C68.6188 21.3291 68.7869 21.4972 69 21.6392C69.2131 21.7765 69.4593 21.8973 69.7386 22.0014C70.018 22.1009 70.3163 22.1861 70.6335 22.2571L71.9403 22.5696C72.5748 22.7116 73.1572 22.901 73.6875 23.1378C74.2178 23.3745 74.6771 23.6657 75.0653 24.0114C75.4536 24.357 75.7543 24.7642 75.9673 25.233C76.1851 25.7017 76.2964 26.2391 76.3011 26.8452C76.2964 27.7353 76.0691 28.5071 75.6193 29.1605C75.1742 29.8092 74.5303 30.3134 73.6875 30.6733C72.8494 31.0284 71.8385 31.206 70.6548 31.206C69.4806 31.206 68.4579 31.026 67.5866 30.6662C66.7202 30.3063 66.0431 29.7737 65.5554 29.0682C65.0724 28.358 64.8191 27.4796 64.7955 26.4332H67.7713C67.8045 26.9209 67.9441 27.3281 68.1903 27.6548C68.4413 27.9768 68.7751 28.2206 69.1918 28.3864C69.6132 28.5473 70.089 28.6278 70.6193 28.6278C71.1402 28.6278 71.5923 28.5521 71.9759 28.4006C72.3641 28.2491 72.6648 28.0384 72.8778 27.7685C73.0909 27.4986 73.1974 27.1884 73.1974 26.8381C73.1974 26.5114 73.1004 26.2367 72.9062 26.0142C72.7169 25.7917 72.4375 25.6023 72.0682 25.446C71.7036 25.2898 71.2562 25.1477 70.7259 25.0199L69.142 24.6222C67.9157 24.3239 66.9474 23.8575 66.2372 23.223C65.527 22.5885 65.1742 21.7339 65.179 20.6591C65.1742 19.7784 65.4086 19.009 65.8821 18.3509C66.3603 17.6927 67.0161 17.179 67.8494 16.8097C68.6828 16.4403 69.6297 16.2557 70.6903 16.2557C71.7699 16.2557 72.7121 16.4403 73.517 16.8097C74.3267 17.179 74.9564 17.6927 75.4062 18.3509C75.8561 19.009 76.0881 19.7713 76.1023 20.6378H73.1548ZM83.2418 31.2131C82.1244 31.2131 81.1632 30.9763 80.3583 30.5028C79.5581 30.0246 78.9426 29.3617 78.5117 28.5142C78.0856 27.6667 77.8725 26.6913 77.8725 25.5881C77.8725 24.4706 78.0879 23.4905 78.5188 22.6477C78.9544 21.8002 79.5723 21.1397 80.3725 20.6662C81.1727 20.188 82.1244 19.9489 83.2276 19.9489C84.1793 19.9489 85.0127 20.1217 85.7276 20.4673C86.4426 20.813 87.0084 21.2983 87.4251 21.9233C87.8417 22.5483 88.0714 23.2822 88.114 24.125H85.2589C85.1784 23.5805 84.9653 23.1425 84.6197 22.8111C84.2788 22.4749 83.8313 22.3068 83.2773 22.3068C82.8086 22.3068 82.399 22.4347 82.0487 22.6903C81.703 22.9413 81.4331 23.3082 81.239 23.7912C81.0449 24.2741 80.9478 24.8589 80.9478 25.5455C80.9478 26.2415 81.0425 26.8333 81.2319 27.321C81.426 27.8087 81.6983 28.1804 82.0487 28.4361C82.399 28.6918 82.8086 28.8196 83.2773 28.8196C83.623 28.8196 83.9331 28.7486 84.2077 28.6065C84.4871 28.4645 84.7167 28.2585 84.8967 27.9886C85.0813 27.714 85.2021 27.3849 85.2589 27.0014H88.114C88.0666 27.8348 87.8394 28.5687 87.4322 29.2031C87.0297 29.8329 86.4734 30.3253 85.7631 30.6804C85.0529 31.0355 84.2125 31.2131 83.2418 31.2131ZM93.0767 24.6932V31H90.0511V16.4545H92.9915V22.0156H93.1193C93.3655 21.3717 93.7633 20.8674 94.3125 20.5028C94.8617 20.1335 95.5507 19.9489 96.3793 19.9489C97.1368 19.9489 97.7973 20.1146 98.3608 20.446C98.929 20.7727 99.3693 21.2438 99.6818 21.8594C99.9991 22.4702 100.155 23.2017 100.151 24.054V31H97.125V24.5938C97.1297 23.9214 96.9593 23.3982 96.6136 23.0241C96.2727 22.6501 95.7945 22.4631 95.179 22.4631C94.767 22.4631 94.4025 22.5507 94.0852 22.7259C93.7727 22.901 93.5265 23.1567 93.3466 23.4929C93.1714 23.8243 93.0814 24.2244 93.0767 24.6932ZM107.461 31.2131C106.357 31.2131 105.403 30.9787 104.598 30.5099C103.798 30.0365 103.18 29.3783 102.745 28.5355C102.309 27.688 102.091 26.7055 102.091 25.5881C102.091 24.4612 102.309 23.4763 102.745 22.6335C103.18 21.786 103.798 21.1278 104.598 20.6591C105.403 20.1856 106.357 19.9489 107.461 19.9489C108.564 19.9489 109.516 20.1856 110.316 20.6591C111.121 21.1278 111.741 21.786 112.176 22.6335C112.612 23.4763 112.83 24.4612 112.83 25.5881C112.83 26.7055 112.612 27.688 112.176 28.5355C111.741 29.3783 111.121 30.0365 110.316 30.5099C109.516 30.9787 108.564 31.2131 107.461 31.2131ZM107.475 28.8693C107.977 28.8693 108.396 28.7273 108.732 28.4432C109.068 28.1544 109.321 27.7614 109.492 27.2642C109.667 26.767 109.755 26.2012 109.755 25.5668C109.755 24.9323 109.667 24.3665 109.492 23.8693C109.321 23.3722 109.068 22.9792 108.732 22.6903C108.396 22.4015 107.977 22.2571 107.475 22.2571C106.968 22.2571 106.542 22.4015 106.196 22.6903C105.855 22.9792 105.597 23.3722 105.422 23.8693C105.252 24.3665 105.167 24.9323 105.167 25.5668C105.167 26.2012 105.252 26.767 105.422 27.2642C105.597 27.7614 105.855 28.1544 106.196 28.4432C106.542 28.7273 106.968 28.8693 107.475 28.8693ZM119.726 31.2131C118.623 31.2131 117.669 30.9787 116.864 30.5099C116.064 30.0365 115.446 29.3783 115.01 28.5355C114.575 27.688 114.357 26.7055 114.357 25.5881C114.357 24.4612 114.575 23.4763 115.01 22.6335C115.446 21.786 116.064 21.1278 116.864 20.6591C117.669 20.1856 118.623 19.9489 119.726 19.9489C120.829 19.9489 121.781 20.1856 122.581 20.6591C123.386 21.1278 124.007 21.786 124.442 22.6335C124.878 23.4763 125.096 24.4612 125.096 25.5881C125.096 26.7055 124.878 27.688 124.442 28.5355C124.007 29.3783 123.386 30.0365 122.581 30.5099C121.781 30.9787 120.829 31.2131 119.726 31.2131ZM119.74 28.8693C120.242 28.8693 120.661 28.7273 120.998 28.4432C121.334 28.1544 121.587 27.7614 121.757 27.2642C121.933 26.767 122.02 26.2012 122.02 25.5668C122.02 24.9323 121.933 24.3665 121.757 23.8693C121.587 23.3722 121.334 22.9792 120.998 22.6903C120.661 22.4015 120.242 22.2571 119.74 22.2571C119.234 22.2571 118.808 22.4015 118.462 22.6903C118.121 22.9792 117.863 23.3722 117.688 23.8693C117.517 24.3665 117.432 24.9323 117.432 25.5668C117.432 26.2012 117.517 26.767 117.688 27.2642C117.863 27.7614 118.121 28.1544 118.462 28.4432C118.808 28.7273 119.234 28.8693 119.74 28.8693ZM130.088 16.4545V31H127.063V16.4545H130.088ZM142.683 20.0909L138.869 31H135.46L131.646 20.0909H134.842L137.107 27.8963H137.221L139.479 20.0909H142.683ZM148.808 31.2131C147.705 31.2131 146.751 30.9787 145.946 30.5099C145.146 30.0365 144.528 29.3783 144.092 28.5355C143.657 27.688 143.439 26.7055 143.439 25.5881C143.439 24.4612 143.657 23.4763 144.092 22.6335C144.528 21.786 145.146 21.1278 145.946 20.6591C146.751 20.1856 147.705 19.9489 148.808 19.9489C149.911 19.9489 150.863 20.1856 151.663 20.6591C152.468 21.1278 153.089 21.786 153.524 22.6335C153.96 23.4763 154.178 24.4612 154.178 25.5881C154.178 26.7055 153.96 27.688 153.524 28.5355C153.089 29.3783 152.468 30.0365 151.663 30.5099C150.863 30.9787 149.911 31.2131 148.808 31.2131ZM148.822 28.8693C149.324 28.8693 149.743 28.7273 150.08 28.4432C150.416 28.1544 150.669 27.7614 150.839 27.2642C151.015 26.767 151.102 26.2012 151.102 25.5668C151.102 24.9323 151.015 24.3665 150.839 23.8693C150.669 23.3722 150.416 22.9792 150.08 22.6903C149.743 22.4015 149.324 22.2571 148.822 22.2571C148.316 22.2571 147.89 22.4015 147.544 22.6903C147.203 22.9792 146.945 23.3722 146.77 23.8693C146.599 24.3665 146.514 24.9323 146.514 25.5668C146.514 26.2012 146.599 26.767 146.77 27.2642C146.945 27.7614 147.203 28.1544 147.544 28.4432C147.89 28.7273 148.316 28.8693 148.822 28.8693ZM156.145 31V20.0909H159.17V31H156.145ZM157.665 18.6847C157.215 18.6847 156.829 18.5355 156.507 18.2372C156.19 17.9342 156.031 17.572 156.031 17.1506C156.031 16.7339 156.19 16.3764 156.507 16.0781C156.829 15.7751 157.215 15.6236 157.665 15.6236C158.115 15.6236 158.498 15.7751 158.815 16.0781C159.137 16.3764 159.298 16.7339 159.298 17.1506C159.298 17.572 159.137 17.9342 158.815 18.2372C158.498 18.5355 158.115 18.6847 157.665 18.6847ZM166.523 31.2131C165.406 31.2131 164.444 30.9763 163.64 30.5028C162.839 30.0246 162.224 29.3617 161.793 28.5142C161.367 27.6667 161.154 26.6913 161.154 25.5881C161.154 24.4706 161.369 23.4905 161.8 22.6477C162.236 21.8002 162.854 21.1397 163.654 20.6662C164.454 20.188 165.406 19.9489 166.509 19.9489C167.461 19.9489 168.294 20.1217 169.009 20.4673C169.724 20.813 170.29 21.2983 170.706 21.9233C171.123 22.5483 171.353 23.2822 171.395 24.125H168.54C168.46 23.5805 168.247 23.1425 167.901 22.8111C167.56 22.4749 167.113 22.3068 166.559 22.3068C166.09 22.3068 165.68 22.4347 165.33 22.6903C164.984 22.9413 164.714 23.3082 164.52 23.7912C164.326 24.2741 164.229 24.8589 164.229 25.5455C164.229 26.2415 164.324 26.8333 164.513 27.321C164.707 27.8087 164.98 28.1804 165.33 28.4361C165.68 28.6918 166.09 28.8196 166.559 28.8196C166.904 28.8196 167.214 28.7486 167.489 28.6065C167.768 28.4645 167.998 28.2585 168.178 27.9886C168.363 27.714 168.483 27.3849 168.54 27.0014H171.395C171.348 27.8348 171.121 28.5687 170.713 29.2031C170.311 29.8329 169.755 30.3253 169.044 30.6804C168.334 31.0355 167.494 31.2131 166.523 31.2131ZM178.304 31.2131C177.182 31.2131 176.216 30.9858 175.406 30.5312C174.601 30.072 173.981 29.4233 173.545 28.5852C173.11 27.7424 172.892 26.7457 172.892 25.5952C172.892 24.473 173.11 23.4882 173.545 22.6406C173.981 21.7931 174.594 21.1326 175.385 20.6591C176.18 20.1856 177.113 19.9489 178.183 19.9489C178.903 19.9489 179.573 20.0649 180.193 20.2969C180.818 20.5241 181.363 20.8674 181.827 21.3267C182.295 21.786 182.66 22.3636 182.92 23.0597C183.181 23.7509 183.311 24.5606 183.311 25.4886V26.3196H174.099V24.4446H180.463C180.463 24.009 180.368 23.6231 180.179 23.2869C179.99 22.9508 179.727 22.688 179.391 22.4986C179.059 22.3045 178.673 22.2074 178.233 22.2074C177.774 22.2074 177.366 22.3139 177.011 22.527C176.661 22.7353 176.386 23.017 176.188 23.3722C175.989 23.7225 175.887 24.1132 175.882 24.544V26.3267C175.882 26.8665 175.982 27.3329 176.18 27.7259C176.384 28.1188 176.67 28.4219 177.04 28.6349C177.409 28.848 177.847 28.9545 178.354 28.9545C178.69 28.9545 178.998 28.9072 179.277 28.8125C179.556 28.7178 179.795 28.5758 179.994 28.3864C180.193 28.197 180.345 27.965 180.449 27.6903L183.247 27.875C183.105 28.5473 182.814 29.1345 182.374 29.6364C181.938 30.1335 181.375 30.5218 180.683 30.8011C179.997 31.0758 179.204 31.2131 178.304 31.2131Z" fill="white"/>
</svg>
